<svg aria-hidden="true" xmlns="http://www.w3.org/2000/svg" viewBox="0 0 334 213" fill="#fff"><path d="m0 59.56v-56.77h15.8v21.11h19.47v-21.11h15.81v56.77h-15.81v-21.97h-19.47v21.97zm79.69-17.83h-2.02c-5.59 0-7.52 1.74-7.52 4.63 0 2.12 1.45 3.76 4.14 3.76s5.4-1.35 5.4-5.49v-2.89zm15.04 3.18c0 2.12.58 3.28 2.21 3.28.97 0 1.93-.39 2.8-.87v10.99c-2.12 1.54-4.14 2.12-7.71 2.12-5.98 0-9.25-2.7-10.98-7.04-2.51 4.63-6.46 7.23-12.82 7.23-8.19 0-13.3-4.82-13.3-12.43 0-9.54 6.84-14.36 20.24-14.36h4.53v-2.99c0-2.89-.96-4.92-3.76-4.92s-3.95 1.64-4.14 5.3l-14.84-2.31c.87-9.15 8-14.94 19.47-14.94 12.72 0 18.31 5.59 18.31 15.33v15.61zm37.87-12.34c-1.83-.67-2.89-1.16-5.4-1.16-3.66 0-8.1 1.45-8.1 9.35v18.79h-15.52v-44.52h13.3l1.54 10.99c1.25-7.42 7.52-10.99 15.13-10.99l-.97 17.54zm1.93-17.54h16.38l5.11 17.93c1.83 6.46 2.89 10.89 2.89 10.89h.19s.96-4.43 2.99-10.89l5.78-17.93h15.13l-16.19 44.53h-16.77zm70.83 26.7h-2.02c-5.59 0-7.52 1.74-7.52 4.63 0 2.12 1.45 3.76 4.14 3.76s5.4-1.35 5.4-5.49v-2.89zm15.03 3.18c0 2.12.58 3.28 2.22 3.28.97 0 1.93-.39 2.79-.87v10.99c-2.12 1.54-4.14 2.12-7.71 2.12-5.97 0-9.25-2.7-10.98-7.04-2.51 4.63-6.46 7.23-12.82 7.23-8.19 0-13.3-4.82-13.3-12.43 0-9.54 6.84-14.36 20.24-14.36h4.53v-2.99c0-2.89-.96-4.92-3.76-4.92s-3.95 1.64-4.15 5.3l-14.84-2.31c.87-9.15 8-14.94 19.47-14.94 12.72 0 18.31 5.59 18.31 15.33zm37.88-12.34c-1.83-.67-2.89-1.16-5.4-1.16-3.66 0-8.09 1.45-8.09 9.35v18.79h-15.52v-44.52h13.3l1.54 10.99c1.25-7.42 7.52-10.99 15.13-10.99zm33.92 1.55c0-5.69-2.8-8.77-7.33-8.77s-8.38 3.37-8.38 12.24c0 7.32 3.08 11.18 8.2 11.18 3.95 0 7.52-2.99 7.52-9.06v-5.59zm-.1-34.12h15.61v59.56h-14.07l-1.44-7.71c-1.64 5.98-6.94 8.87-13.69 8.87-10.4 0-17.82-8.1-17.82-22.55s7.13-24.19 19.66-24.19c5.69 0 10.21 2.6 11.76 6.84v-20.82zm-276.48 115.4h8.19c3.95 0 6.17-1.73 6.17-5.01s-2.22-5.01-6.17-5.01h-8.19zm0-20.14h6.07c4.05 0 6.56-1.54 6.56-5.4s-2.51-5.4-6.56-5.4h-6.07v10.79zm30.55 17.83c0 9.16-6.26 15.32-20.14 15.32h-26.02v-56.77h25.25c12.05 0 18.5 5.5 18.5 14.84 0 6.65-3.85 11.27-9.92 12.82 8 1.64 12.33 7.04 12.33 13.78m30.74 7.04c-1.25 5.88-5.78 9.45-13.39 9.45-8.09 0-13.78-5.01-13.78-15.52v-30.17h15.61v26.89c0 4.43 1.25 7.13 4.81 7.13 4.05 0 6.55-3.66 6.55-10.89v-23.13h15.61v44.53h-13.97l-1.45-8.29zm31.32-7.03c.87 3.66 3.66 5.59 7.03 5.59 2.8 0 4.73-.96 4.73-2.89s-1.64-2.8-4.82-3.47l-5.98-1.25c-8.1-1.74-12.34-5.88-12.34-13.2 0-10.79 9.25-15.03 19.18-15.03 10.7 0 17.15 4.43 18.69 12.72l-14.16 2.12c-.48-2.51-2.02-3.95-5.01-3.95-2.22 0-3.76 1.06-3.76 2.8s1.25 2.6 3.56 2.99l5.98 1.06c9.83 1.64 13.97 6.94 13.97 14.46 0 10.5-9.16 14.55-20.14 14.55-10.12 0-16.87-3.66-19.37-11.56l12.43-4.92zm47.12 15.32h-15.52v-44.53h15.52zm-7.81-63.8c4.63 0 8.58 3.18 8.58 8.19s-3.95 8.19-8.58 8.19-8.58-3.18-8.58-8.19 3.95-8.19 8.58-8.19m29.98 27.85c2.32-6.65 7.52-9.64 14.17-9.64s13.01 4.05 13.01 14.26v31.32h-15.52v-25.35c0-4.53-1.35-7.33-5.3-7.33-3.38 0-6.26 2.02-6.26 8.87v23.81h-15.52v-44.53h13.97l1.45 8.58zm59.07 8.87c0-3.85-1.35-7.23-5.69-7.23-3.76 0-6.17 3.08-6.55 7.23zm1.54 10.99 12.92 4.05c-2.51 9.54-10.41 13.2-19.28 13.2-13.2 0-22.84-8.38-22.84-22.94s8.48-23.8 22.46-23.8c13.2 0 19.95 8.48 19.95 20.82 0 1.64 0 3.57-.2 5.59h-27.18c.29 5.49 2.99 8.48 7.61 8.48 3.28 0 5.5-1.45 6.55-5.4m27.48.77c.86 3.66 3.66 5.59 7.03 5.59 2.79 0 4.72-.96 4.72-2.89s-1.64-2.8-4.82-3.47l-5.97-1.25c-8.09-1.74-12.34-5.88-12.34-13.2 0-10.79 9.25-15.03 19.18-15.03 10.7 0 17.16 4.43 18.7 12.72l-14.17 2.12c-.48-2.51-2.02-3.95-5.01-3.95-2.22 0-3.76 1.06-3.76 2.8s1.25 2.6 3.57 2.99l5.97 1.06c9.84 1.64 13.98 6.94 13.98 14.46 0 10.5-9.15 14.55-20.14 14.55-10.12 0-16.87-3.66-19.37-11.56l12.44-4.92zm41.25 0c.87 3.66 3.66 5.59 7.03 5.59 2.8 0 4.72-.96 4.72-2.89s-1.64-2.8-4.82-3.47l-5.97-1.25c-8.1-1.74-12.34-5.88-12.34-13.2 0-10.79 9.26-15.03 19.18-15.03 10.7 0 17.16 4.43 18.69 12.72l-14.16 2.12c-.48-2.51-2.02-3.95-5.01-3.95-2.22 0-3.77 1.06-3.77 2.8s1.25 2.6 3.57 2.99l5.98 1.06c9.83 1.64 13.97 6.94 13.97 14.46 0 10.5-9.16 14.55-20.14 14.55-10.12 0-16.86-3.66-19.37-11.56l12.44-4.92zm-291.13 53.24h6.07c5.5 0 7.9-2.21 7.9-6.26s-2.41-6.26-7.9-6.26h-6.07v12.53zm16.09 30.94c-1.83-1.54-2.5-3.66-3.18-6.36l-1.74-7.03c-.96-4.05-2.6-4.82-6.26-4.82h-4.91v18.21h-15.71v-56.77h24.28c12.72 0 21.49 4.91 21.49 17.83 0 8.96-5.78 13.39-12.04 14.46 5.2 1.06 7.8 3.37 9.15 8.29l2.7 9.73c.67 2.51 1.44 4.43 3.47 6.46zm43.94-27.08c0-3.85-1.35-7.23-5.68-7.23-3.76 0-6.17 3.08-6.56 7.23zm1.54 10.99 12.91 4.05c-2.5 9.54-10.41 13.2-19.28 13.2-13.2 0-22.84-8.38-22.84-22.94s8.48-23.81 22.46-23.81c13.2 0 19.95 8.48 19.95 20.82 0 1.64 0 3.57-.19 5.59h-27.18c.29 5.49 2.99 8.48 7.61 8.48 3.28 0 5.49-1.45 6.55-5.4m12.06-28.43h16.38l5.11 17.93c1.83 6.46 2.89 10.89 2.89 10.89h.2s.96-4.43 2.98-10.89l5.78-17.93h15.13l-16.19 44.53h-16.77l-15.52-44.53zm67.36 44.52h-15.51v-44.52h15.51zm-7.81-63.8c4.63 0 8.58 3.18 8.58 8.19s-3.95 8.19-8.58 8.19-8.57-3.18-8.57-8.19 3.95-8.19 8.57-8.19m40.29 36.73c0-3.85-1.35-7.23-5.69-7.23-3.76 0-6.17 3.08-6.55 7.23zm1.54 10.99 12.91 4.05c-2.5 9.54-10.41 13.2-19.27 13.2-13.2 0-22.84-8.38-22.84-22.94s8.48-23.81 22.46-23.81c13.2 0 19.95 8.48 19.95 20.82 0 1.64 0 3.57-.19 5.59h-27.18c.29 5.49 2.99 8.48 7.61 8.48 3.28 0 5.49-1.45 6.56-5.4m54.83-28.43 3.18 15.51c1.64 8 2.51 13.98 2.51 13.98h.2s.96-5.88 2.79-13.78l3.56-15.71h15.13l-12.05 44.53h-17.44l-2.7-13.01c-1.35-6.55-2.41-14.27-2.41-14.27h-.19s-1.06 7.71-2.41 14.27l-2.7 13.01h-17.35l-12.05-44.53h15.71l3.56 15.71c1.84 7.9 2.8 13.78 2.8 13.78h.19s.87-5.98 2.51-13.98l3.18-15.51h13.97z"/></svg>
