<svg aria-hidden="true" xmlns="http://www.w3.org/2000/svg" viewBox="0 0 670 124" fill="#fff"><path d="M67.87,121.83l-57-65.34v65.34H0V33.59H3.88L60.73,98.8V33.59h10.9v88.24Z"/><path d="M91.17,33.59h11.27v88.24H91.17Z"/><path d="M144.76,77.64,133.24,90.16v31.67H122V33.59h11.27V76.77l38.57-43.18h12v.62L152.65,69.38l33.44,51.82v.63H173.44Z"/><path d="M220.27,77.64,208.75,90.16v31.67H197.48V33.59h11.27V76.77l38.57-43.18h12v.62L228.16,69.38,261.6,121.2v.63H249Z"/><path d="M273,33.59h46.83v9.76H284.27V71.26H315.2V80.9H284.27v31.16h35.56v9.77H273Z"/><path d="M336.11,33.59h11.27v88.24H336.11Z"/><path d="M447.81,97.58H404.86l-9.58,24.27H373V120.7L421.54,2.13h9.59L479.86,120.7v1.15H457.55ZM426.33,41.43l-14.7,39H441Z"/><path d="M488,115.91V97.75l.83-.33A45,45,0,0,0,517,107.16c9.91,0,15-3.8,15-10.07,0-6-3.3-8.09-12.39-10.41l-8.59-2.31C497.2,80.74,488,72.82,488,58.28c0-16.67,13.05-27.4,33-27.4,11.4,0,19.5,2,26.27,5.11V52.84l-.83.49a55.92,55.92,0,0,0-25.27-6.11c-9.75,0-12.89,3.8-12.89,9.08,0,5.12,3.14,7.76,9.91,9.58L526.61,68C544.45,72.82,553,78.59,553,94.61c0,19-14.7,29.06-34.69,29.06C503.65,123.67,494.73,120.37,488,115.91Z"/><path d="M562.79,0h22.3V19.32h-22.3ZM563,33.19h22v88.66H563Z"/><path d="M649.35,112c-4.46,6.27-11.89,12-24.78,12-17,0-29.73-9.08-29.73-26.25,0-18.33,14-24.6,35.51-27.74L648,67.53V67.2c0-14-5.95-18.33-19.33-18.33a50.47,50.47,0,0,0-26.1,6.61l-1-.33v-17c6.94-4.29,16.85-6.93,30.23-6.93C656.12,31.21,670,41,670,66.54v55.31H651ZM648,99.73v-18l-12.89,2c-13.38,2-18.66,5.29-18.66,13.05,0,6.93,4.29,11.55,13.54,11.55C638.61,108.31,644.23,104.68,648,99.73Z"/></svg>
